<svg width="40" height="41" viewBox="0 0 40 41" fill="none" xmlns="http://www.w3.org/2000/svg">
<path fill-rule="evenodd" clip-rule="evenodd" d="M20.0329 12.0728C24.4784 12.0355 28.265 15.7174 28.2465 20.3501C28.2279 24.9642 24.3856 28.5902 19.9586 28.5529C15.4296 28.5156 11.6986 24.7964 11.7543 20.229C11.81 15.6522 15.4945 12.0169 20.0329 12.0728ZM25.3137 20.3688C25.4065 17.5444 22.9842 14.9997 20.0143 14.9997C17.1001 14.9997 14.6964 17.4046 14.6964 20.2476C14.6964 23.2677 17.0444 25.6353 20.0514 25.626C22.9192 25.626 25.3044 23.2304 25.3137 20.3688Z" fill="white"/>
<path d="M28.5387 13.6578C27.4735 13.7572 26.622 12.7891 26.5942 11.7745C26.5664 10.7305 27.5037 9.80771 28.5525 9.81703C29.6291 9.83567 30.5479 10.7305 30.5015 11.7931C30.4644 12.7612 29.6777 13.7571 28.5387 13.6578Z" fill="white"/>
<path fill-rule="evenodd" clip-rule="evenodd" d="M4.03248 14.1514C4.06961 12.0914 4.38516 10.0687 5.55455 8.29766C6.63113 6.65712 8.10679 5.5572 9.98153 4.92335C11.8006 4.29883 13.6846 4.29883 15.5686 4.29883C19.1882 4.29883 22.8077 4.29883 26.4273 4.33611C28.4598 4.35476 30.4088 4.78354 32.1257 5.93938C34.0654 7.23504 35.2441 9.08065 35.6432 11.3644C35.8752 12.716 35.9866 14.1048 35.9958 15.4751C36.0144 19.39 35.968 23.2956 35.9123 27.2106C35.8845 28.9257 35.504 30.5849 34.6037 32.0763C33.5178 33.866 31.9772 35.0498 29.9818 35.6929C28.1721 36.2802 26.3066 36.2988 24.4504 36.2988C20.8958 36.2988 17.3506 36.2988 13.796 36.2709C11.9305 36.2615 10.1207 35.9446 8.47803 35.0125C6.55688 33.9312 5.27612 32.3093 4.61718 30.1841C4.16242 28.7579 4.07889 27.2851 4.01392 25.803C4.00464 25.5421 3.9768 17.1529 4.04176 14.1514H4.03248ZM7.1323 28.1147C7.29007 29.6527 7.93973 31.023 9.22978 32.0204C10.492 32.9991 11.9676 33.2974 13.4619 33.3253C13.919 33.336 14.3763 33.3473 14.8336 33.3586C19.1574 33.4654 23.4867 33.5724 27.8008 33.1762C28.8774 33.0737 29.8612 32.7008 30.7243 32.0483C32.3763 30.8086 32.9517 29.0189 32.9981 27.0801C33.0909 23.482 33.0724 19.8747 33.0538 16.2767C33.0538 14.9904 32.9888 13.6947 32.8496 12.4177C32.7011 11.0195 32.1257 9.78907 31.0584 8.81965C29.8797 7.75703 28.4412 7.34689 26.9099 7.30961C23.0212 7.23504 19.1232 7.17911 15.2345 7.19775L15.2334 7.19776C13.8045 7.20708 12.3571 7.21652 10.9653 7.67314C8.5894 8.43748 7.29935 10.2458 7.12302 12.4829C6.90956 15.298 6.9374 26.2878 7.12302 28.0961L7.1323 28.1147Z" fill="white"/>
</svg>
