<svg width="16" height="16" viewBox="0 0 16 16" fill="none" xmlns="http://www.w3.org/2000/svg">
<path fill-rule="evenodd" clip-rule="evenodd" d="M10.0602 13.0787C12.2358 11.1253 14 9.54115 14 7C14 3.68629 11.3137 1 8 1C4.68629 1 2 3.68629 2 7C2 9.54115 3.76422 11.1253 5.93976 13.0787C6.60116 13.6726 7.30058 14.3006 8 15C8.69942 14.3006 9.39884 13.6726 10.0602 13.0787ZM8 10C9.65685 10 11 8.65685 11 7C11 5.34315 9.65685 4 8 4C6.34315 4 5 5.34315 5 7C5 8.65685 6.34315 10 8 10Z" fill="white"/>
</svg>
