<svg width="40" height="41" viewBox="0 0 40 41" fill="none" xmlns="http://www.w3.org/2000/svg">
<path d="M33.639 11.3002C34.8467 10.3465 35.8016 9.34654 36.1668 7.9299C35.0807 8.34656 34.0509 8.78173 32.993 9.13358C32.581 9.27246 32.1129 9.54098 31.6448 9.09654C30.7086 8.19841 29.5851 7.64287 28.2932 7.42065C26.0556 7.03177 24.0708 7.56879 22.4137 9.1058C20.9064 10.5039 20.1949 12.2446 20.3072 14.2909C20.3259 14.6612 20.3072 15.0316 20.3072 15.439C20.3072 15.439 20.148 15.439 19.8672 15.402C17.1989 15.1427 14.7741 14.439 12.5834 13.3094C10.945 12.5039 9.28789 11.4021 7.8742 9.89282C7.63078 9.66134 6.89116 8.72618 6.76009 8.53174C6.76009 8.53174 6.24517 9.14284 5.90813 10.1799C5.36513 12.2446 5.75834 14.1798 7.08777 15.939C7.46226 16.4297 7.96782 16.8186 8.4172 17.2538C8.38912 17.3093 8.36103 17.3556 8.33294 17.4112C7.4529 17.1705 6.57285 16.9297 5.6928 16.6982C5.47747 18.8834 7.0316 22.0129 10.6454 23.2722C9.80281 23.3092 8.95085 23.3463 8.00527 23.3833C9.10064 26.124 11.1322 27.5591 14.1094 27.9388C11.3382 29.985 8.31422 30.8276 5 30.7257H5.01872C5.01872 30.7257 16.038 36.8182 25.7373 30.2535C27.3569 29.1239 32.8151 24.5777 33.7888 15.9575C33.7513 15.8371 33.9947 14.1335 34.0322 13.4113C34.0322 13.4113 35.5863 12.4854 37 10.6428C35.8672 10.828 34.8561 11.3465 33.639 11.3095V11.3002Z" fill="white"/>
</svg>
